<svg version="1.1" id="Layer_1" xmlns="http://www.w3.org/2000/svg" xmlns:xlink="http://www.w3.org/1999/xlink" x="0px" y="0px"
viewBox="0 0 781 219.4" enable-background="new 0 0 781 219.4" xml:space="preserve">
<path id="XMLID_8_" fill="#12B9A9" d="M300.9,172.3c-1.9-5.3-9.3-6.1-9.3-6.1h-39l-21.6-57.7c-9.8-11.3-18.2,0-18.2,0l-15.7,36.1
L160.6,8.2c-0.2-1.5-1.9-4.2-1.9-4.2s-3.6-4.3-9.1-4c-5.5,0.4-8.9,5.7-8.9,5.7l-30.3,153.6c0,0-18.2-71.7-19.5-77.2
c-1.3-5.5-2.1-6.1-2.1-6.1s-1.9-5.1-8.7-5.5c-6.8-0.4-10,6.4-10,6.4l-15.7,40.5l-40.3,0.2c-9.8,1.9-9.6,10.8-9.6,10.8
c1.1,10,9.5,10.2,9.5,10.2l44.8,0.2c10.2,1.3,13.6-7.4,13.6-7.4l5.5-14.9l22.8,91.1c2.4,12.8,11.8,11.8,11.8,11.8
c9.5,0,10.6-11.5,10.6-11.5l14.2-75.3h34.2l12.5,46.7c1.5,8.9,9.5,8.7,9.5,8.7c7.4,1.1,10.6-4.9,10.6-4.9l17.4-40.1
c0,0,10.5,29.3,13,37.1c2.5,7.8,10.8,7.9,10.8,7.9h45.8c7-0.2,9.8-5.5,9.8-5.5C303.4,175.7,300.9,172.3,300.9,172.3z M141.5,111.2
l9.8-53.3l15.1,53.3H141.5z"/>
<g id="XMLID_1_">
<path fill="#3A495A" d="M377.9,96.4h22.5v89.5h-22.5v-9.5c-4.4,4.2-8.8,7.2-13.2,9c-4.4,1.8-9.2,2.8-14.3,2.8
c-11.6,0-21.6-4.5-30-13.4c-8.4-9-12.6-20.1-12.6-33.4c0-13.8,4.1-25.1,12.2-34c8.2-8.8,18.1-13.2,29.7-13.2c5.4,0,10.4,1,15.1,3
c4.7,2,9.1,5.1,13.1,9.1V96.4z M354.3,114.8c-6.9,0-12.7,2.5-17.3,7.4c-4.6,4.9-6.9,11.2-6.9,18.9c0,7.7,2.3,14.1,7,19.1
c4.7,5,10.4,7.5,17.3,7.5c7,0,12.9-2.5,17.5-7.4c4.6-4.9,7-11.3,7-19.3c0-7.8-2.3-14.1-7-18.9C367.2,117.3,361.4,114.8,354.3,114.8
z"/>
<path fill="#3A495A" d="M410.3,96.4H433v43.1c0,8.4,0.6,14.2,1.7,17.5c1.2,3.3,3,5.8,5.6,7.6c2.6,1.8,5.7,2.7,9.4,2.7
c3.7,0,6.9-0.9,9.5-2.7c2.6-1.8,4.5-4.4,5.8-7.9c0.9-2.6,1.4-8.1,1.4-16.5V96.4h22.5v37.9c0,15.6-1.2,26.3-3.7,32.1
c-3,7-7.5,12.4-13.3,16.2s-13.3,5.6-22.4,5.6c-9.8,0-17.8-2.2-23.8-6.6s-10.3-10.5-12.8-18.3c-1.8-5.4-2.6-15.3-2.6-29.6V96.4z"/>
<path fill="#3A495A" d="M498.7,96.4h22.5v10.3c3.8-4.2,8.1-7.4,12.8-9.5c4.7-2.1,9.8-3.1,15.3-3.1c5.6,0,10.6,1.4,15.1,4.1
c4.5,2.7,8.1,6.7,10.9,12c3.6-5.3,7.9-9.3,13.1-12c5.2-2.7,10.9-4.1,17-4.1c6.4,0,12,1.5,16.8,4.4c4.8,3,8.3,6.8,10.4,11.6
c2.1,4.8,3.2,12.5,3.2,23.3v52.5h-22.6v-45.4c0-10.1-1.3-17-3.8-20.6c-2.5-3.6-6.3-5.4-11.3-5.4c-3.8,0-7.3,1.1-10.3,3.3
c-3,2.2-5.3,5.2-6.8,9.1c-1.5,3.9-2.2,10.1-2.2,18.6v40.4h-22.6v-43.3c0-8-0.6-13.8-1.8-17.4c-1.2-3.6-3-6.3-5.3-8
c-2.4-1.8-5.2-2.6-8.6-2.6c-3.7,0-7.1,1.1-10.2,3.3c-3.1,2.2-5.3,5.3-6.8,9.3c-1.5,4-2.3,10.3-2.3,18.9v39.8h-22.5V96.4z"/>
<path fill="#3A495A" d="M734.2,147.7H662c1,6.4,3.8,11.4,8.3,15.2c4.5,3.8,10.3,5.6,17.3,5.6c8.4,0,15.6-2.9,21.6-8.8l18.9,8.9
c-4.7,6.7-10.4,11.6-16.9,14.8c-6.6,3.2-14.4,4.8-23.4,4.8c-14,0-25.5-4.4-34.3-13.3c-8.8-8.9-13.2-19.9-13.2-33.3
c0-13.7,4.4-25,13.2-34c8.8-9,19.8-13.5,33.1-13.5c14.1,0,25.5,4.5,34.4,13.5c8.8,9,13.2,20.9,13.2,35.7L734.2,147.7z M711.7,130
c-1.5-5-4.4-9-8.8-12.2c-4.4-3.1-9.4-4.7-15.2-4.7c-6.3,0-11.8,1.8-16.5,5.3c-3,2.2-5.7,6.1-8.2,11.6H711.7z"/>
<path fill="#3A495A" d="M742.4,63.4h22.5v33h13.3v19.3h-13.3v70.2h-22.5v-70.2h-11.5V96.4h11.5V63.4z"/>
</g>
</svg>
